<?xml version="1.0" standalone="no"?><!DOCTYPE svg PUBLIC "-//W3C//DTD SVG 1.1//EN" "http://www.w3.org/Graphics/SVG/1.1/DTD/svg11.dtd"><svg t="1650248167667" class="icon" viewBox="0 0 1024 1024" version="1.1" xmlns="http://www.w3.org/2000/svg" p-id="16395" xmlns:xlink="http://www.w3.org/1999/xlink" width="200" height="200"><defs><style type="text/css">@font-face { font-family: feedback-iconfont; src: url("//at.alicdn.com/t/font_1031158_u69w8yhxdu.woff2?t=1630033759944") format("woff2"), url("//at.alicdn.com/t/font_1031158_u69w8yhxdu.woff?t=1630033759944") format("woff"), url("//at.alicdn.com/t/font_1031158_u69w8yhxdu.ttf?t=1630033759944") format("truetype"); }
</style></defs><path d="M981.333333 938.666667h-214.016v-306.176c0-80.128-33.493333-134.826667-107.093333-134.826667-56.32 0-87.68 36.906667-102.229333 72.490667-5.461333 12.8-4.608 30.549333-4.608 48.341333V938.666667H341.333333S344.064 396.330667 341.333333 347.008h212.053334v92.885333C565.888 399.274667 633.6 341.333333 741.802667 341.333333 875.946667 341.333333 981.333333 426.453333 981.333333 609.706667V938.666667zM148.821333 298.666667h-1.28C83.925333 298.666667 42.666667 251.648 42.666667 192.085333 42.666667 131.370667 85.12 85.333333 150.016 85.333333 214.869333 85.333333 254.72 131.242667 256 191.914667 256 251.477333 214.869333 298.666667 148.821333 298.666667zM85.333333 341.333333h170.666667v597.333334H85.333333V341.333333z" fill="#66ccff" p-id="16396"></path></svg>