<?xml version="1.0" standalone="no"?><!DOCTYPE svg PUBLIC "-//W3C//DTD SVG 1.1//EN" "http://www.w3.org/Graphics/SVG/1.1/DTD/svg11.dtd"><svg t="1650247310840" class="icon" viewBox="0 0 1024 1024" version="1.1" xmlns="http://www.w3.org/2000/svg" p-id="10362" xmlns:xlink="http://www.w3.org/1999/xlink" width="200" height="200"><defs><style type="text/css">@font-face { font-family: feedback-iconfont; src: url("//at.alicdn.com/t/font_1031158_u69w8yhxdu.woff2?t=1630033759944") format("woff2"), url("//at.alicdn.com/t/font_1031158_u69w8yhxdu.woff?t=1630033759944") format("woff"), url("//at.alicdn.com/t/font_1031158_u69w8yhxdu.ttf?t=1630033759944") format("truetype"); }
</style></defs><path d="M852.00896 0l-679.99744 0c-94.59712 0-171.99104 77.39392-171.99104 171.99104l0 679.99744c0 94.59712 77.39392 171.99104 171.99104 171.99104l679.99744 0c94.59712 0 171.99104-77.39392 171.99104-171.99104l0-679.99744c0-94.59712-77.39392-171.99104-171.99104-171.99104zM384 832l-128 0 0-448 128 0 0 448zM320 320c-35.34848 0-64-28.65152-64-64s28.65152-64 64-64 64 28.65152 64 64-28.65152 64-64 64zM832 832l-128 0 0-256c0-35.34848-28.65152-64-64-64s-64 28.65152-64 64l0 256-128 0 0-448 128 0 0 79.4624c26.39872-36.27008 66.74432-79.4624 112.00512-79.4624 79.52384 0 143.99488 71.63904 143.99488 160.01024l0 288.01024z" p-id="10363" fill="#66ccff"></path></svg>