<?xml version="1.0" standalone="no"?><!DOCTYPE svg PUBLIC "-//W3C//DTD SVG 1.1//EN" "http://www.w3.org/Graphics/SVG/1.1/DTD/svg11.dtd"><svg t="1650247438089" class="icon" viewBox="0 0 1024 1024" version="1.1" xmlns="http://www.w3.org/2000/svg" p-id="14098" xmlns:xlink="http://www.w3.org/1999/xlink" width="200" height="200"><defs><style type="text/css">@font-face { font-family: feedback-iconfont; src: url("//at.alicdn.com/t/font_1031158_u69w8yhxdu.woff2?t=1630033759944") format("woff2"), url("//at.alicdn.com/t/font_1031158_u69w8yhxdu.woff?t=1630033759944") format("woff"), url("//at.alicdn.com/t/font_1031158_u69w8yhxdu.ttf?t=1630033759944") format("truetype"); }
</style></defs><path d="M512 0C229.216 0 0 229.216 0 512s229.216 512 512 512 512-229.216 512-512S794.784 0 512 0zM256 256l512 0c9.152 0 18.016 1.952 26.144 5.664L512 590.816 229.856 261.664C237.984 257.952 246.848 256 256 256zM192 704 192 320c0-1.344 0.064-2.688 0.128-4l187.648 218.944L194.208 720.544C192.768 715.2 192 709.664 192 704zM768 768 256 768c-5.664 0-11.2-0.768-16.544-2.208l182.112-182.112L512 689.184l90.432-105.504 182.112 182.112C779.2 767.232 773.664 768 768 768zM832 704c0 5.664-0.768 11.2-2.208 16.544l-185.6-185.6L831.872 316c0.096 1.344 0.128 2.656 0.128 4L832 704z" p-id="14099" fill="#66ccff"></path></svg>